<svg width="62" height="80" viewBox="0 0 62 80" xmlns="http://www.w3.org/2000/svg"><g stroke="#F2C520" stroke-width="6" fill="none" fill-rule="evenodd"><path d="M32.781 4c1.899 0 3.617.77 4.862 2.014a6.853 6.853 0 0 1 2.013 4.861v7.875c0 1.38.56 2.63 1.465 3.536a4.984 4.984 0 0 0 3.535 1.464h6.672c1.566 0 2.984.635 4.01 1.661A5.654 5.654 0 0 1 57 29.421V73a3.987 3.987 0 0 1-1.172 2.828A3.987 3.987 0 0 1 53 77H7a3.987 3.987 0 0 1-2.828-1.172A3.987 3.987 0 0 1 3 73V8c0-1.105.448-2.105 1.172-2.828A3.987 3.987 0 0 1 7 4z"/><path stroke-linecap="round" stroke-linejoin="round" d="M20.1 59.645l-8.263-8.263 8.264-8.264M39.734 59.645l8.263-8.263-8.263-8.264M32.855 36.371L27 63.809M47.329 3.371l11.52 13.533"/></g></svg>